<?xml version="1.0" standalone="no"?>
<!DOCTYPE svg PUBLIC "-//W3C//DTD SVG 20010904//EN"
 "http://www.w3.org/TR/2001/REC-SVG-20010904/DTD/svg10.dtd">
<svg version="1.0" xmlns="http://www.w3.org/2000/svg"
 width="256.000000pt" height="256.000000pt" viewBox="0 0 256.000000 256.000000"
 preserveAspectRatio="xMidYMid meet">
<metadata>
Created by potrace 1.16, written by Peter Selinger 2001-2019
</metadata>
<g transform="translate(0.000000,256.000000) scale(0.100000,-0.100000)"
fill="#000000" stroke="none">
<path d="M2033 2003 l-61 -68 39 -64 c22 -36 39 -68 39 -72 0 -8 -55 -17 -155
-26 -44 -3 -75 -10 -75 -17 1 -29 17 -31 143 -16 l128 15 -19 35 c-10 19 -25
46 -34 60 -17 25 -16 26 42 90 33 36 59 70 60 76 0 6 -11 20 -24 33 l-23 22
-60 -68z"/>
<path d="M1214 2039 c-39 -5 -107 -21 -151 -37 l-81 -30 -28 24 c-16 13 -33
23 -37 24 -5 0 19 -23 53 -51 l61 -51 42 15 c122 46 249 62 354 47 109 -16
164 -35 241 -86 l67 -44 -54 50 c-117 110 -281 159 -467 139z"/>
<path d="M925 1958 c3 -8 -20 -31 -56 -58 -293 -213 -409 -602 -269 -898 31
-66 50 -86 25 -26 -22 53 -45 176 -45 243 0 232 146 497 349 634 l51 34 -24
22 c-14 13 -22 29 -20 36 3 7 1 16 -5 20 -6 3 -9 0 -6 -7z"/>
<path d="M1153 1790 c0 -23 -5 -45 -10 -49 -153 -98 -263 -177 -263 -190 0 -9
-7 -77 -15 -151 -20 -181 -19 -185 8 -197 l23 -11 13 157 c11 142 15 158 36
176 12 11 25 28 28 38 5 13 18 17 64 18 34 0 51 3 40 8 -15 5 -5 16 51 54 61
41 70 52 74 82 2 19 0 35 -5 35 -5 0 -7 13 -4 30 5 24 3 28 -9 23 -9 -3 -19 0
-24 6 -4 7 -7 -6 -7 -29z"/>
<path d="M2316 1712 c-3 -5 2 -35 12 -68 12 -44 16 -101 17 -226 0 -91 -3
-169 -6 -172 -3 -4 -55 -9 -116 -13 l-109 -6 -28 -86 c-15 -47 -29 -93 -32
-101 -4 -11 -3 -12 3 -3 6 9 13 2 22 -23 l13 -37 14 29 c8 16 23 59 33 94 17
63 19 65 57 72 21 4 71 7 111 7 l71 1 8 33 c4 17 7 98 6 179 -1 117 -5 163
-22 227 -21 76 -42 113 -54 93z"/>
<path d="M1370 1482 c0 -38 -3 -90 -6 -117 -7 -46 -9 -49 -112 -126 -58 -43
-108 -79 -111 -79 -3 0 -39 24 -78 54 -40 30 -67 45 -60 35 7 -11 52 -49 100
-85 l88 -64 82 59 c151 111 136 85 138 246 1 135 1 140 -20 143 -20 3 -21 -1
-21 -66z"/>
<path d="M1675 1433 c-22 -155 -61 -251 -137 -339 -24 -27 -35 -43 -25 -35 23
18 21 8 -8 -45 -30 -54 -30 -53 -4 -47 22 6 93 86 94 106 1 7 16 43 34 82 37
77 57 149 67 249 5 45 3 66 -4 66 -6 0 -14 -17 -17 -37z"/>
</g>
</svg>
