<?xml version="1.0" standalone="no"?>
<!DOCTYPE svg PUBLIC "-//W3C//DTD SVG 20010904//EN"
 "http://www.w3.org/TR/2001/REC-SVG-20010904/DTD/svg10.dtd">
<svg version="1.0" xmlns="http://www.w3.org/2000/svg"
 width="256.000000pt" height="256.000000pt" viewBox="0 0 256.000000 256.000000"
 preserveAspectRatio="xMidYMid meet">
<metadata>
Created by potrace 1.16, written by Peter Selinger 2001-2019
</metadata>
<g transform="translate(0.000000,256.000000) scale(0.100000,-0.100000)"
fill="#000000" stroke="none">
<path d="M0 1280 l0 -1280 1280 0 1280 0 0 1280 0 1280 -1280 0 -1280 0 0
-1280z m1422 1013 l3 -67 93 -19 94 -20 61 61 62 61 66 -28 c77 -33 186 -102
252 -160 l47 -43 -64 -71 -64 -72 39 -64 c21 -36 39 -68 39 -72 0 -7 -43 -14
-169 -28 -68 -7 -75 -6 -90 13 -9 12 -48 53 -87 92 -98 100 -191 145 -331 163
-95 12 -212 -2 -313 -38 l-81 -29 -55 50 c-29 28 -54 53 -54 57 0 4 29 21 64
38 67 33 76 48 76 129 0 41 20 53 140 82 94 23 127 28 212 30 l57 2 3 -67z
m-574 -262 c45 -41 82 -77 82 -80 0 -4 -28 -27 -61 -51 -132 -96 -236 -237
-292 -398 -29 -80 -31 -98 -32 -217 0 -107 4 -142 22 -200 39 -122 132 -252
221 -307 19 -11 31 -26 28 -33 -3 -8 2 -19 10 -26 13 -10 17 -10 24 1 7 12 17
11 63 -3 61 -19 196 -39 210 -30 5 3 32 5 61 5 38 -1 47 1 36 9 -11 7 -6 8 19
4 25 -6 32 -4 26 5 -6 10 -1 11 19 6 20 -5 26 -3 21 5 -5 8 -1 9 14 4 13 -4
21 -2 21 5 0 6 5 8 10 5 28 -17 201 89 294 180 118 116 194 265 223 433 13 81
14 110 4 185 -6 48 -20 110 -30 137 -22 59 -31 54 122 69 59 6 155 16 213 22
87 9 108 9 115 -2 4 -8 18 -50 31 -94 19 -68 22 -104 23 -247 0 -91 -3 -169
-6 -172 -3 -4 -55 -9 -115 -13 l-109 -6 -27 -85 c-25 -80 -26 -87 -12 -123 12
-28 13 -42 5 -58 -10 -17 -3 -26 49 -72 33 -29 60 -56 60 -61 0 -6 9 -23 21
-39 l21 -30 -40 -67 c-51 -85 -198 -260 -243 -289 -19 -12 -45 -30 -59 -40
-13 -9 -32 -18 -42 -18 -10 -1 -21 -5 -25 -9 -4 -3 -42 28 -85 71 l-78 77 -77
-33 c-43 -18 -97 -40 -120 -49 -41 -16 -43 -18 -43 -58 0 -76 -13 -193 -21
-189 -4 3 -9 1 -11 -5 -6 -17 -151 -33 -258 -27 -58 2 -138 13 -177 23 -64 15
-73 20 -73 40 0 17 -7 24 -30 29 l-31 7 6 86 c4 48 8 92 10 98 2 6 -18 22 -43
36 -28 15 -47 33 -47 42 0 10 -9 22 -19 28 -15 9 -30 -2 -98 -68 l-79 -79 -65
68 c-81 85 -152 192 -194 293 l-32 77 65 66 65 66 -21 98 -22 98 -40 -2 c-96
-5 -95 -5 -95 55 0 70 24 205 53 297 l23 74 69 8 c38 4 69 8 70 10 1 1 22 41
47 88 l45 87 -38 45 -39 45 42 54 c54 68 128 142 197 196 61 49 45 54 169 -57z
m483 -151 c129 -24 254 -122 306 -238 75 -171 32 -402 -106 -555 -20 -22 -30
-37 -23 -33 19 11 14 -6 -13 -46 -27 -40 -33 -63 -12 -53 6 4 1 -3 -13 -14
-54 -46 -189 -101 -247 -101 -19 0 -23 5 -23 29 0 25 -3 28 -25 23 -16 -3 -27
-13 -31 -28 -7 -29 -28 -30 -105 -8 -66 19 -121 52 -113 66 5 7 2 8 -5 4 -8
-5 -38 18 -82 63 -143 146 -179 313 -109 515 42 122 161 260 273 317 59 31
146 59 151 50 8 -12 -3 -124 -13 -130 -158 -102 -261 -177 -261 -190 0 -9 -7
-79 -15 -156 -8 -77 -14 -149 -14 -160 0 -21 11 -29 164 -121 65 -39 95 -62
95 -75 0 -10 9 -23 19 -29 17 -9 20 -6 23 16 2 22 29 44 163 129 l160 101 0
188 0 187 -143 66 -142 66 6 51 c3 28 7 57 9 64 5 15 53 16 126 2z m39 -377
c0 -178 2 -173 -109 -257 -53 -40 -102 -76 -109 -80 -11 -6 -75 35 -183 117
-15 11 -15 26 -5 152 l11 140 155 16 c85 9 174 17 198 18 l42 1 0 -107z"/>
</g>
</svg>
